<svg width="20" height="20" viewBox="0 0 20 20" fill="none" xmlns="http://www.w3.org/2000/svg">
<g clip-path="url(#clip0_332_2922)">
<path d="M13.7493 12.52L14.2693 12.104L13.4373 11.064L12.9173 11.48L13.7493 12.52ZM10 14.6667L9.584 15.1867L10 15.52L10.416 15.1867L10 14.6667ZM7.08267 11.48L6.56267 11.0627L5.72933 12.104L6.24933 12.52L7.08267 11.48ZM6.25067 7.48L5.73067 7.896L6.56267 8.936L7.08267 8.52L6.25067 7.48ZM10 5.33333L10.416 4.81333L10 4.48L9.584 4.81333L10 5.33333ZM12.9173 8.52L13.4373 8.93733L14.2707 7.896L13.7507 7.48L12.9173 8.52ZM12.9173 11.48L9.584 14.1467L10.416 15.1867L13.7493 12.52L12.9173 11.48ZM10.416 14.1467L7.08267 11.48L6.25067 12.52L9.584 15.1867L10.416 14.1467ZM7.08267 8.52L10.416 5.85333L9.584 4.81333L6.25067 7.48L7.08267 8.52ZM9.584 5.85333L12.9173 8.52L13.7507 7.48L10.416 4.81333L9.584 5.85333ZM10 18.6667C7.70146 18.6667 5.49706 17.7536 3.87174 16.1283C2.24643 14.5029 1.33333 12.2985 1.33333 10H0C0 12.6522 1.05357 15.1957 2.92893 17.0711C4.8043 18.9464 7.34784 20 10 20V18.6667ZM18.6667 10C18.6667 11.1381 18.4425 12.2651 18.007 13.3166C17.5714 14.3681 16.933 15.3235 16.1283 16.1283C15.3235 16.933 14.3681 17.5714 13.3166 18.007C12.2651 18.4425 11.1381 18.6667 10 18.6667V20C12.6522 20 15.1957 18.9464 17.0711 17.0711C18.9464 15.1957 20 12.6522 20 10H18.6667ZM10 1.33333C11.1381 1.33333 12.2651 1.5575 13.3166 1.99304C14.3681 2.42858 15.3235 3.06697 16.1283 3.87174C16.933 4.67652 17.5714 5.63192 18.007 6.68341C18.4425 7.7349 18.6667 8.86188 18.6667 10H20C20 7.34784 18.9464 4.8043 17.0711 2.92893C15.1957 1.05357 12.6522 0 10 0V1.33333ZM10 0C7.34784 0 4.8043 1.05357 2.92893 2.92893C1.05357 4.8043 0 7.34784 0 10H1.33333C1.33333 7.70146 2.24643 5.49706 3.87174 3.87174C5.49706 2.24643 7.70146 1.33333 10 1.33333V0Z" fill="#7B83A9"/>
</g>
<defs>
<clipPath id="clip0_332_2922">
<rect width="20" height="20" fill="white"/>
</clipPath>
</defs>
</svg>
