<svg width="24" height="25" viewBox="0 0 24 25" fill="none" xmlns="http://www.w3.org/2000/svg">
<g clip-path="url(#clip0_332_2951)">
<path d="M21.7133 10.9801L19.48 10.3134C19.3256 9.77431 19.1132 9.2535 18.8466 8.7601L19.94 6.71344C19.981 6.63618 19.996 6.54776 19.9828 6.46129C19.9696 6.37482 19.9289 6.29492 19.8666 6.23344L18.2733 4.63344C18.2118 4.57121 18.1319 4.53048 18.0455 4.51727C17.959 4.50406 17.8706 4.51908 17.7933 4.5601L15.76 5.64677C15.2617 5.36721 14.7341 5.14363 14.1866 4.9801L13.52 2.77344C13.4918 2.69211 13.4385 2.62183 13.3678 2.57272C13.2971 2.5236 13.2127 2.49817 13.1266 2.5001H10.8733C10.7867 2.50051 10.7026 2.52853 10.633 2.58008C10.5635 2.63164 10.5122 2.70405 10.4866 2.78677L9.81998 4.98677C9.26799 5.14942 8.73582 5.37302 8.23331 5.65344L6.23331 4.57344C6.15606 4.53241 6.06764 4.51739 5.98117 4.5306C5.8947 4.54381 5.81479 4.58455 5.75331 4.64677L4.13331 6.22677C4.07109 6.28825 4.03035 6.36815 4.01714 6.45462C4.00393 6.54109 4.01896 6.62951 4.05998 6.70677L5.13998 8.70677C4.86002 9.20716 4.63643 9.73707 4.47331 10.2868L2.26665 10.9534C2.18393 10.979 2.11152 11.0303 2.05996 11.0998C2.0084 11.1693 1.98038 11.2535 1.97998 11.3401V13.5934C1.98038 13.68 2.0084 13.7642 2.05996 13.8337C2.11152 13.9033 2.18393 13.9546 2.26665 13.9801L4.48665 14.6468C4.65154 15.1873 4.8751 15.7082 5.15331 16.2001L4.05998 18.2934C4.01896 18.3707 4.00393 18.4591 4.01714 18.5456C4.03035 18.6321 4.07109 18.712 4.13331 18.7734L5.72665 20.3668C5.78813 20.429 5.86803 20.4697 5.9545 20.4829C6.04097 20.4961 6.12939 20.4811 6.20665 20.4401L8.26665 19.3401C8.75396 19.6031 9.26799 19.8131 9.79998 19.9668L10.4666 22.2134C10.4922 22.2962 10.5435 22.3686 10.613 22.4201C10.6826 22.4717 10.7667 22.4997 10.8533 22.5001H13.1066C13.1932 22.4997 13.2774 22.4717 13.3469 22.4201C13.4165 22.3686 13.4678 22.2962 13.4933 22.2134L14.16 19.9601C14.6874 19.8057 15.197 19.5956 15.68 19.3334L17.7533 20.4401C17.8306 20.4811 17.919 20.4961 18.0055 20.4829C18.0919 20.4697 18.1718 20.429 18.2333 20.3668L19.8266 18.7734C19.8889 18.712 19.9296 18.6321 19.9428 18.5456C19.956 18.4591 19.941 18.3707 19.9 18.2934L18.7933 16.2268C19.0582 15.7419 19.2705 15.2301 19.4266 14.7001L21.6733 14.0334C21.756 14.0079 21.8284 13.9566 21.88 13.8871C21.9316 13.8175 21.9596 13.7333 21.96 13.6468V11.3734C21.9639 11.2905 21.9424 11.2084 21.8983 11.1381C21.8542 11.0678 21.7897 11.0127 21.7133 10.9801ZM12 16.1668C11.2748 16.1668 10.5659 15.9517 9.96289 15.5488C9.35991 15.1459 8.88994 14.5733 8.61242 13.9033C8.3349 13.2333 8.26229 12.496 8.40377 11.7848C8.54525 11.0735 8.89446 10.4202 9.40726 9.90738C9.92005 9.39458 10.5734 9.04537 11.2846 8.90389C11.9959 8.76241 12.7332 8.83502 13.4032 9.11254C14.0731 9.39007 14.6458 9.86003 15.0487 10.463C15.4516 11.066 15.6666 11.7749 15.6666 12.5001C15.6666 13.4726 15.2803 14.4052 14.5927 15.0928C13.9051 15.7805 12.9724 16.1668 12 16.1668Z" fill="#CED5F2"/>
</g>
<defs>
<clipPath id="clip0_332_2951">
<rect width="24" height="24" fill="white" transform="translate(0 0.5)"/>
</clipPath>
</defs>
</svg>
